HIERARCHY
ROOT Hips
{
	OFFSET 0.00000 0.00000 0.00000
	CHANNELS 6 Xposition Yposition Zposition Zrotation Yrotation Xrotation 
	JOINT LHipJoint
	{
		OFFSET 0 0 0
		CHANNELS 3 Zrotation Yrotation Xrotation
		JOINT LeftHip
		{
			OFFSET 1.28858 -1.83292 1.03970
			CHANNELS 3 Zrotation Yrotation Xrotation
			JOINT LeftKnee
			{
				OFFSET 2.47846 -6.80952 0.00000
				CHANNELS 3 Zrotation Yrotation Xrotation
				JOINT LeftAnkle
				{
					OFFSET 2.75274 -7.56311 0.00000
					CHANNELS 3 Zrotation Yrotation Xrotation
					JOINT LeftToe
					{
						OFFSET 0.12848 -0.35301 1.68223
						CHANNELS 3 Zrotation Yrotation Xrotation
						End Site
						{
							OFFSET 0.00000 -0.00000 0.87311
						}
					}
				}
			}
		}
	}
	JOINT RHipJoint
	{
		OFFSET 0 0 0
		CHANNELS 3 Zrotation Yrotation Xrotation
		JOINT RightHip
		{
			OFFSET -1.31183 -1.83292 1.03970
			CHANNELS 3 Zrotation Yrotation Xrotation
			JOINT RightKnee
			{
				OFFSET -2.44740 -6.72417 0.00000
				CHANNELS 3 Zrotation Yrotation Xrotation
				JOINT RightAnkle
				{
					OFFSET -2.67343 -7.34519 0.00000
					CHANNELS 3 Zrotation Yrotation Xrotation
					JOINT RightToe
					{
						OFFSET -0.16914 -0.46471 1.77626
						CHANNELS 3 Zrotation Yrotation Xrotation
						End Site
						{
							OFFSET -0.00000 -0.00000 0.92777
						}
					}
				}
			}
		}
	}
	JOINT lowerback
	{
		OFFSET 0 0 0
		CHANNELS 3 Zrotation Yrotation Xrotation
		JOINT Chest
		{
			OFFSET 0.01249 2.14252 0.03842
			CHANNELS 3 Zrotation Yrotation Xrotation
			JOINT Chest2
			{
				OFFSET -0.02957 2.14199 -0.03751
				CHANNELS 3 Zrotation Yrotation Xrotation
				JOINT lowerneck
				{
					OFFSET 0 0 0
					CHANNELS 3 Zrotation Yrotation Xrotation
					JOINT Neck
					{
						OFFSET -0.01678 1.65709 -0.05476
						CHANNELS 3 Zrotation Yrotation Xrotation
						JOINT Head
						{
							OFFSET 0.07912 1.58331 -0.11843
							CHANNELS 3 Zrotation Yrotation Xrotation
							End Site
							{
								OFFSET 0.03298 1.73940 -0.04271
							}
						}
					}
				}
				JOINT LeftCollar
				{
					OFFSET 0 0 0
					CHANNELS 3 Zrotation Yrotation Xrotation
					JOINT LeftShoulder
					{
						OFFSET 3.39556 1.16496 0.08673
CHANNELS 3 Zrotation Xrotation Yrotation
						JOINT LeftElbow
						{
OFFSET 0 -5.239100 -0.000000
CHANNELS 3 Zrotation Xrotation Yrotation
							JOINT LeftWrist
							{
OFFSET 0 -3.314670 0.000000
CHANNELS 3 Zrotation Xrotation Yrotation
								JOINT lhand
								{
									OFFSET 0 0 0
CHANNELS 3 Zrotation Xrotation Yrotation
									JOINT LFingers
									{
OFFSET 0 -0.965900 0.000000
CHANNELS 3 Zrotation Xrotation Yrotation
										End Site
										{
OFFSET 0 -0.778730 0.000000
										}
									}
								}
								JOINT LThumb
								{
OFFSET 0 0.000000 0.000000
CHANNELS 3 Zrotation Xrotation Yrotation
									End Site
									{
OFFSET 0 -0.790620 0.790620
									}
								}
							}
						}
					}
				}
				JOINT RightCollar
				{
					OFFSET 0 0 0
					CHANNELS 3 Zrotation Yrotation Xrotation
					JOINT RightShoulder
					{
						OFFSET -3.27193 1.31331 0.33940
CHANNELS 3 Zrotation Xrotation Yrotation
						JOINT RightElbow
						{
OFFSET 0 -5.302520 0.000000
CHANNELS 3 Zrotation Xrotation Yrotation
							JOINT RightWrist
							{
OFFSET 0 -3.678750 0.000000
CHANNELS 3 Zrotation Xrotation Yrotation
								JOINT rhand
								{
									OFFSET 0 0 0
CHANNELS 3 Zrotation Xrotation Yrotation
									JOINT RFingers
									{
OFFSET 0 -0.594810 0.000000
CHANNELS 3 Zrotation Xrotation Yrotation
										End Site
										{
OFFSET 0 -0.479550 0.000000
										}
									}
								}
								JOINT RThumb
								{
OFFSET 0 0.000000 0.000000
CHANNELS 3 Zrotation Xrotation Yrotation
									End Site
									{
OFFSET 0 -0.486870 0.486870
									}
								}
							}
						}
					}
				}
			}
		}
	}
}
MOTION
Frames: 10
Frame Time: 0.008333333333333333
6.958900 18.298400 -3.156600 1.723200 2.851700 2.611500 0.000000 0.000000 0.000000 -10.436500 5.288300 -18.034800 2.029700 8.927700 25.569400 0.318800 -8.659000 -10.960200 1.164800 6.851300 19.275500 0.000000 0.000000 0.000000 18.714600 7.353800 6.275300 -0.002200 0.302800 -0.831900 -1.264100 -18.234100 -34.397500 -1.567500 -7.900200 22.411500 2.918000 0.044200 -0.300600 -0.603800 0.019500 2.701100 -2.256300 0.089600 2.946700 -2.180800 -2.782500 3.277300 1.751900 -3.939600 15.754900 0.857000 -1.975900 4.742800 0.000000 -0.000000 0.000000 9.327100 -0.871700 -32.781100 13.764400 -22.396900 2.737700 9.106200 -13.177700 13.088800 0.000000 0.000000 0.000000 -7.125000 0.000000 0.000000 -12.533200 16.921900 -8.551100 0.000000 -0.000000 0.000000 -9.309300 7.324300 18.969900 -12.920000 -21.169900 -2.424300 -8.214800 19.804300 35.733100 0.000000 0.000000 0.000000 7.125000 0.000000 -0.000000 31.173500 63.308600 -14.560800
6.915262 18.289181 -3.115325 1.368892 2.759669 2.475126 0.000000 0.000000 0.000000 -10.210329 4.954297 -17.318175 1.905908 8.666557 24.758319 0.183829 -9.482774 -9.495138 1.151723 6.811787 19.159766 0.000000 0.000000 0.000000 19.220561 5.900300 5.954278 -0.000705 0.168392 -0.462717 -0.843859 -18.772790 -32.471600 -0.851844 -5.855129 16.373242 3.309623 -0.054708 -0.676049 -0.365418 -0.140758 2.756251 -2.236077 0.021249 3.206846 -2.423579 -2.893236 2.055226 1.564364 -4.070249 17.673680 0.737460 -2.046757 5.056975 0.000000 0.000000 0.000000 9.059444 -0.804920 -32.821701 13.147244 -21.502589 2.507003 10.131970 -14.523459 14.397521 0.000000 0.000000 0.000000 -7.125000 0.000000 0.000000 -11.794658 15.565700 -8.375964 0.000000 0.000000 0.000000 -9.891242 7.072383 19.827440 -10.843652 -18.025665 -1.744775 3.893203 8.666946 41.129682 0.000000 0.000000 0.000000 7.125000 0.000000 0.000000 50.309503 64.014965 -26.423922
6.878202 18.280856 -3.073271 1.091168 2.559768 2.414555 0.000000 0.000000 0.000000 -10.067646 4.244282 -16.156084 1.667591 8.135603 23.127304 0.111818 -9.546942 -8.493722 1.321465 7.280152 20.548176 0.000000 0.000000 0.000000 19.587137 4.652230 5.575994 -0.000022 0.027450 -0.075308 -0.503691 -19.084837 -30.654834 -0.320174 -3.623063 10.020082 3.648955 -0.026459 -1.092768 -0.224397 -0.131775 2.725877 -2.281842 0.035872 3.412426 -2.424607 -3.007809 1.160453 1.454948 -4.212169 18.903738 0.674418 -2.115380 5.591907 0.000000 0.000000 0.000000 8.919363 -0.662370 -32.683146 12.824251 -21.029065 2.389913 9.941904 -14.359452 13.310752 0.000000 0.000000 0.000000 -7.125000 0.000000 0.000000 -11.955013 16.655382 -8.209258 0.000000 0.000000 0.000000 -10.186578 6.458530 18.645563 -13.474627 -21.976945 -2.629408 8.551844 -3.417459 45.879354 0.000000 0.000000 0.000000 7.125000 0.000000 0.000000 62.273985 65.499591 -36.751343
6.844751 18.274805 -3.028478 0.813813 2.420234 2.297908 0.000000 0.000000 0.000000 -9.969403 3.149994 -14.473772 1.358756 7.376711 20.836956 0.095801 -9.128169 -8.021730 1.443610 7.595315 21.491554 0.000000 0.000000 0.000000 19.979940 3.868321 5.483090 -0.000117 -0.059145 0.162510 -0.386901 -18.960253 -29.710816 -0.162905 -2.599481 7.165682 3.957053 -0.024728 -1.473513 -0.087311 -0.158206 2.654778 -2.315354 0.030687 3.553254 -2.427307 -3.100848 0.331972 1.382549 -4.339163 20.583818 0.620112 -2.173862 6.266410 0.000000 0.000000 0.000000 8.774908 -0.393104 -32.644237 12.378055 -20.369061 2.232182 10.332180 -14.618185 13.083060 0.000000 0.000000 0.000000 -7.125000 0.000000 0.000000 -11.696289 16.858397 -7.970745 0.000000 0.000000 0.000000 -10.433323 6.482252 18.687836 -15.066176 -24.237681 -3.253412 1.528244 -0.667195 43.811645 0.000000 0.000000 0.000000 7.125000 0.000000 0.000000 52.586847 66.447289 -30.646743
6.817193 18.268087 -2.982529 0.539931 2.248842 2.203361 0.000000 0.000000 0.000000 -9.908627 1.859663 -12.445287 1.019005 6.418394 18.004673 0.113676 -8.025890 -7.740180 1.741021 8.300567 23.633111 0.000000 0.000000 0.000000 20.313289 3.335172 5.387371 -0.000525 -0.148637 0.408365 -0.412214 -18.426779 -29.236912 -0.142981 -2.436903 6.714665 4.238513 -0.021256 -1.826334 0.045225 -0.182082 2.556707 -2.338376 0.024981 3.650409 -2.395090 -3.054425 -0.602155 1.302285 -4.277779 22.448811 0.564298 -2.137795 7.027521 0.000000 0.000000 0.000000 8.630969 -0.157860 -32.536662 11.881798 -19.627025 2.062543 10.620329 -14.688723 12.823733 0.000000 0.000000 0.000000 -7.125000 0.000000 0.000000 -11.507635 17.099279 -7.774869 0.000000 0.000000 0.000000 -10.630694 6.554379 18.739752 -15.882051 -25.360289 -3.595371 -6.643066 4.742160 37.927995 0.000000 0.000000 0.000000 7.125000 0.000000 0.000000 35.535314 64.662287 -17.998885
6.792772 18.258120 -2.944682 0.280913 2.096787 2.217838 0.000000 0.000000 0.000000 -9.799618 0.719787 -10.605492 0.741131 5.498932 15.337460 0.136544 -6.202053 -7.355069 2.286738 9.438742 27.178145 0.000000 0.000000 0.000000 20.617793 2.967239 5.106233 -0.001967 -0.285565 0.784683 -0.455682 -17.891725 -28.901986 -0.133973 -2.358924 6.498621 4.455518 -0.028259 -2.162993 0.178692 -0.217774 2.421630 -2.324863 0.010044 3.698805 -2.407535 -2.848355 -1.494310 1.399190 -4.025440 24.056653 0.590860 -2.000575 7.713642 0.000000 0.000000 0.000000 8.535803 0.033246 -32.404854 11.447692 -18.971212 1.918948 10.361545 -14.454531 12.379870 0.000000 0.000000 0.000000 -7.125000 0.000000 0.000000 -11.701231 17.555030 -7.791811 0.000000 0.000000 0.000000 -10.742433 6.380361 18.234840 -16.059926 -25.601760 -3.671765 -7.514888 5.155494 36.356407 0.000000 0.000000 0.000000 7.125000 0.000000 0.000000 32.627077 63.640799 -15.566125
6.767783 18.248306 -2.911179 0.211903 2.025248 2.186891 0.000000 0.000000 0.000000 -9.793038 -0.089605 -9.173575 0.587891 4.908447 13.647763 0.183198 -4.607237 -7.786980 2.457888 9.760902 28.205861 0.000000 0.000000 0.000000 20.754390 2.752718 4.979977 -0.003910 -0.404129 1.110403 -0.486296 -17.582240 -28.754532 -0.120940 -2.241811 6.174393 4.380448 -0.081617 -2.454896 0.296837 -0.303403 2.345512 -2.166443 -0.035856 3.779348 -2.355196 -2.686199 -1.870434 1.485480 -3.832468 24.742095 0.615528 -1.892913 8.007941 0.000000 0.000000 0.000000 8.470186 0.157087 -32.401062 11.093796 -18.431781 1.805515 9.472645 -13.943818 11.886715 0.000000 0.000000 0.000000 -7.125000 0.000000 0.000000 -12.334684 18.090001 -8.084484 0.000000 0.000000 0.000000 -10.826713 6.105671 17.611453 -16.240817 -25.846113 -3.750381 -7.335093 5.061627 36.637557 0.000000 0.000000 0.000000 7.125000 0.000000 0.000000 33.151472 63.823410 -15.984758
6.739518 18.245547 -2.877037 0.321981 1.926527 2.015826 0.000000 0.000000 0.000000 -9.903694 -0.622251 -8.134820 0.525300 4.644508 12.897423 0.240899 -3.895069 -8.747251 2.363335 9.585060 27.643119 0.000000 0.000000 0.000000 20.713870 2.546669 5.043892 -0.006381 -0.515467 1.416418 -0.518463 -17.324786 -28.684472 -0.107613 -2.114685 5.822658 4.098599 -0.129494 -2.633635 0.341596 -0.366455 2.367771 -1.966841 -0.072938 3.899903 -2.090464 -2.591411 -1.783075 1.376627 -3.704400 24.616687 0.545764 -1.819908 7.939110 0.000000 0.000000 0.000000 8.532073 0.098147 -32.760408 10.727457 -17.869197 1.691413 8.725195 -13.663480 11.661188 0.000000 0.000000 0.000000 -7.125000 0.000000 0.000000 -12.861822 18.348210 -8.372705 0.000000 0.000000 0.000000 -10.791849 5.790762 17.006886 -16.425375 -26.094001 -3.831133 -7.889771 5.160353 36.845567 0.000000 0.000000 0.000000 7.125000 0.000000 0.000000 32.835177 64.143538 -16.058850
6.705884 18.249726 -2.849336 0.606532 1.795037 1.842864 0.000000 0.000000 0.000000 -10.128920 -0.823485 -7.579389 0.502049 4.542232 12.607359 0.258999 -3.734989 -9.054005 2.521287 9.876218 28.577002 0.000000 0.000000 0.000000 20.512428 2.514816 5.129296 -0.009350 -0.625758 1.719484 -0.551916 -17.197250 -28.776284 -0.100875 -2.048089 5.638666 3.702026 -0.090678 -2.702975 0.239446 -0.297348 2.401812 -1.846408 -0.046181 3.978751 -2.020203 -2.563328 -1.763886 1.575457 -3.715612 24.519322 0.599566 -1.802390 7.905094 0.000000 0.000000 0.000000 8.801583 -0.105504 -33.427393 10.349574 -17.284496 1.577217 8.430031 -13.566634 11.859867 0.000000 0.000000 0.000000 -7.125000 0.000000 0.000000 -13.054871 18.166185 -8.559157 0.000000 0.000000 0.000000 -10.423174 5.506226 16.003942 -16.535900 -26.241880 -3.879906 -8.651063 5.008256 36.564472 0.000000 0.000000 0.000000 7.125000 0.000000 0.000000 31.701771 64.118142 -15.429750
6.669872 18.255177 -2.829541 0.928161 1.676089 1.760465 0.000000 0.000000 0.000000 -10.264768 -0.411985 -7.463382 0.490649 4.491368 12.463395 0.230980 -3.843457 -8.565993 2.781865 10.332876 30.061947 0.000000 0.000000 0.000000 20.308698 2.702078 5.201742 -0.012016 -0.706757 1.942256 -0.587351 -17.205263 -29.037830 -0.103529 -2.075185 5.713541 3.357320 0.013638 -2.693100 0.048407 -0.134696 2.375303 -1.840652 0.027067 3.954375 -2.210238 -2.589409 -1.860859 2.092514 -3.847534 24.591223 0.791797 -1.835197 7.963407 0.000000 0.000000 0.000000 9.204428 -0.229872 -33.948330 10.137771 -16.954748 1.514880 7.891567 -13.141984 11.888611 0.000000 0.000000 0.000000 -7.125000 0.000000 0.000000 -13.423777 18.162179 -8.816044 0.000000 0.000000 0.000000 -9.820961 5.469808 14.856677 -16.745990 -26.521661 -3.973295 -8.754339 4.365375 36.720689 0.000000 0.000000 0.000000 7.125000 0.000000 0.000000 31.784899 64.275686 -15.590120
